# xmcd
#
# Track frame offsets:
#	182
#	12595
#	23970
#	35055
#	50005
#	58200
#	67970
#	79497
#	90120
#	100295
#	110182
#	121472
#	132197
#	144262
#	154482
#	163477
#	176557
#	186440
#	194152
#	205957
#
# Disc length: 2916 seconds
#
# Revision: 3
# Processed by: cddbd v1.5.1PL2 Copyright (c) Steve Scherf et al.
# Submitted via: EasyCDDAExtractor 9.0.0.1
#
DISCID=370b6214
DTITLE=Various Artist - Country Greats
DYEAR=1996
DGENRE=Country
TTITLE0=Kenny Rogers and The First Edition - Reuben James
TTITLE1=Patsy Cline - Walkin' After Midnight
TTITLE2=Faron Young - Country Girl
TTITLE3=Willie Nelson - Face Of A Fighter
TTITLE4=Jim Reeves - Sweet Evening Breeze (Bring My Baby Back To Me) (Live)
TTITLE5=Stonewall Jackson - Shake 'Em Up, Roll 'Em
TTITLE6=Dolly Parton - Making Believe
TTITLE7=Boxcar Willie - Six Days On The Road
TTITLE8=Ferlin Husky - Wings Of A Dove
TTITLE9=Donna Fargo - Sticks And Stones
TTITLE10=Razzy Bailey - 99,999,999 Tears
TTITLE11=Waylon Jennings - Sally Was A Good Old Girl
TTITLE12=Ron Drusky - Luckenbach Texas
TTITLE13=Barbara Mandrell - Kaw-Liga (Live)
TTITLE14=Kitty Wells - I'll Repossess My Heart
TTITLE15=Freddy Fender - That Girl Who Waits On Tables
TTITLE16=Mickey Gilley - Fraulein
TTITLE17=Various Artist - Jambalaya
TTITLE18=Kenny Rogers - Elvira
TTITLE19=Various Artist - North To Alaska
EXTD=
EXTT0=
EXTT1=
EXTT2=
EXTT3=
EXTT4=
EXTT5=
EXTT6=
EXTT7=
EXTT8=
EXTT9=
EXTT10=
EXTT11=
EXTT12=
EXTT13=
EXTT14=
EXTT15=
EXTT16=
EXTT17=
EXTT18=
EXTT19=
PLAYORDER=
